<svg xmlns="http://www.w3.org/2000/svg" viewBox="0 0 800 450" width="100%" height="100%">
  <defs>
    <linearGradient id="grad-66" x1="0%" y1="0%" x2="100%" y2="100%">
      <stop offset="0%" stop-color="#120d24" />
      <stop offset="100%" stop-color="#2b1760" />
    </linearGradient>
    <pattern id="grid-66" width="40" height="40" patternUnits="userSpaceOnUse">
      <path d="M40 0L0 0 0 40" fill="none" stroke="#8b5cf6" stroke-width="0.7" opacity="0.08" />
    </pattern>
  </defs>
  <rect width="800" height="450" fill="url(#grad-66)" />
  <rect width="800" height="450" fill="url(#grid-66)" />
  
  <circle cx="140" cy="100" r="94" fill="#8b5cf6" opacity="0.08" />
  <circle cx="655" cy="335" r="104" fill="#22d3ee" opacity="0.06" />
  <rect x="129" y="110" width="546" height="220" rx="28" fill="#100d1a" stroke="#8b5cf6" stroke-opacity="0.22" />
  <path d="M211 175h168M211 225h123M211 275h200" stroke="#e9ddff" stroke-width="10" stroke-linecap="round" opacity="0.5" />
  <path d="M482 152l91 86-96 60 10-60-50-30z" fill="#8b5cf6" opacity="0.18" stroke="#8b5cf6" stroke-width="6" />
  <path d="M504 214l26 26 50-60" fill="none" stroke="#22d3ee" stroke-width="12" stroke-linecap="round" stroke-linejoin="round" />
  
      <rect x="66" y="54" width="96" height="28" rx="8" fill="#0c1724" stroke="#8b5cf6" stroke-opacity="0.22"/>
      <text x="114" y="73" font-family="'IBM Plex Mono', monospace" font-size="11" fill="#8b5cf6" text-anchor="middle">#DELIVERABI</text>
    
      <rect x="178" y="54" width="96" height="28" rx="8" fill="#0c1724" stroke="#8b5cf6" stroke-opacity="0.22"/>
      <text x="226" y="73" font-family="'IBM Plex Mono', monospace" font-size="11" fill="#8b5cf6" text-anchor="middle">#BEST-PRACT</text>
    
  <text x="400" y="372" font-family="'Syne', sans-serif" font-size="18" font-weight="700" fill="#ffffff" text-anchor="middle" letter-spacing="3">THE SERIOUS HAZARDS OF USING</text>
  <text x="400" y="398" font-family="'IBM Plex Mono', monospace" font-size="11" fill="#8b5cf6" opacity="0.82" text-anchor="middle" letter-spacing="2">PURCHASED B2B MAILING LISTS // POST-0066</text>
</svg>