<svg xmlns="http://www.w3.org/2000/svg" viewBox="0 0 800 450" width="100%" height="100%">
  <defs>
    <linearGradient id="grad-7" x1="0%" y1="0%" x2="100%" y2="100%">
      <stop offset="0%" stop-color="#111827" />
      <stop offset="100%" stop-color="#1f2937" />
    </linearGradient>
    <pattern id="grid-7" width="40" height="40" patternUnits="userSpaceOnUse">
      <path d="M40 0L0 0 0 40" fill="none" stroke="#60a5fa" stroke-width="0.7" opacity="0.08" />
    </pattern>
  </defs>
  <rect width="800" height="450" fill="url(#grad-7)" />
  <rect width="800" height="450" fill="url(#grid-7)" />
  
  <circle cx="123" cy="106" r="89" fill="#60a5fa" opacity="0.07" />
  <circle cx="653" cy="321" r="112" fill="#22c55e" opacity="0.06" />
  <rect x="178" y="104" width="407" height="70" rx="18" fill="#0b1220" stroke="#60a5fa" stroke-opacity="0.26" />
  <rect x="201" y="170" width="406" height="70" rx="18" fill="#0b1220" stroke="#22c55e" stroke-opacity="0.24" />
  <rect x="221" y="236" width="401" height="70" rx="18" fill="#0b1220" stroke="#60a5fa" stroke-opacity="0.22" />
  <path d="M228 138h196M251 204h211M271 270h170" stroke="#dbeafe" stroke-width="8" stroke-linecap="round" opacity="0.45" />
  <g transform="translate(594 205)">
    <rect x="-58" y="-36" width="116" height="74" rx="14" fill="none" stroke="#60a5fa" stroke-width="8"/><path d="M-58 -28l58 42 58-42" fill="none" stroke="#22c55e" stroke-width="8" stroke-linecap="round" stroke-linejoin="round"/>
  </g>
  <text x="400" y="372" font-family="'Syne', sans-serif" font-size="18" font-weight="700" fill="#ffffff" text-anchor="middle" letter-spacing="3">CHOOSING THE RIGHT</text>
  <text x="400" y="400" font-family="'IBM Plex Mono', monospace" font-size="11" fill="#60a5fa" opacity="0.8" text-anchor="middle" letter-spacing="2">SMTP RELAY SERVICE // POST-0007</text>
</svg>