<svg xmlns="http://www.w3.org/2000/svg" viewBox="0 0 800 450" width="100%" height="100%">
  <defs>
    <linearGradient id="grad-11" x1="0%" y1="0%" x2="100%" y2="100%">
      <stop offset="0%" stop-color="#07111f" />
      <stop offset="100%" stop-color="#0f3b5f" />
    </linearGradient>
    <pattern id="grid-11" width="40" height="40" patternUnits="userSpaceOnUse">
      <path d="M40 0L0 0 0 40" fill="none" stroke="#38bdf8" stroke-width="0.7" opacity="0.08" />
    </pattern>
  </defs>
  <rect width="800" height="450" fill="url(#grad-11)" />
  <rect width="800" height="450" fill="url(#grid-11)" />
  
  <path d="M0 352Q170 300 332 339T640 338T800 350V450H0Z" fill="#22c55e" opacity="0.08" />
  <circle cx="178" cy="101" r="83" fill="#38bdf8" opacity="0.08" />
  <rect x="162" y="98" width="476" height="236" rx="26" fill="#06101b" stroke="#38bdf8" stroke-opacity="0.24" />
  <circle cx="198" cy="128" r="8" fill="#38bdf8" opacity="0.8" />
  <circle cx="224" cy="128" r="8" fill="#22c55e" opacity="0.8" />
  <circle cx="250" cy="128" r="8" fill="#ffffff" opacity="0.5" />
  <path d="M218 170h141M218 210h203M218 250h138" stroke="#d7f3ff" stroke-width="9" stroke-linecap="round" opacity="0.45" />
  <circle cx="530" cy="212" r="56" fill="none" stroke="#38bdf8" stroke-width="10" />
  <path d="M568 252l38 38" stroke="#22c55e" stroke-width="12" stroke-linecap="round" />
  
      <rect x="66" y="54" width="96" height="28" rx="8" fill="#0c1724" stroke="#38bdf8" stroke-opacity="0.22"/>
      <text x="114" y="73" font-family="'IBM Plex Mono', monospace" font-size="11" fill="#38bdf8" text-anchor="middle">#DELIVERABI</text>
    
      <rect x="178" y="54" width="96" height="28" rx="8" fill="#0c1724" stroke="#38bdf8" stroke-opacity="0.22"/>
      <text x="226" y="73" font-family="'IBM Plex Mono', monospace" font-size="11" fill="#38bdf8" text-anchor="middle">#BEST-PRACT</text>
    
  <text x="400" y="372" font-family="'Syne', sans-serif" font-size="18" font-weight="700" fill="#ffffff" text-anchor="middle" letter-spacing="3">HOW TO CLEAN AND VALIDATE EMA…</text>
  <text x="400" y="400" font-family="'IBM Plex Mono', monospace" font-size="11" fill="#38bdf8" opacity="0.82" text-anchor="middle" letter-spacing="2">LIVE RECORD LOOKUP // POST-0011</text>
</svg>