<svg xmlns="http://www.w3.org/2000/svg" viewBox="0 0 800 450" width="100%" height="100%">
  <defs>
    <linearGradient id="grad-40" x1="0%" y1="0%" x2="100%" y2="100%">
      <stop offset="0%" stop-color="#09203a" />
      <stop offset="100%" stop-color="#1e3a8a" />
    </linearGradient>
    <pattern id="grid-40" width="40" height="40" patternUnits="userSpaceOnUse">
      <path d="M40 0L0 0 0 40" fill="none" stroke="#38bdf8" stroke-width="0.7" opacity="0.08" />
    </pattern>
  </defs>
  <rect width="800" height="450" fill="url(#grad-40)" />
  <rect width="800" height="450" fill="url(#grid-40)" />
  
  <circle cx="156" cy="102" r="80" fill="#38bdf8" opacity="0.07" />
  <circle cx="636" cy="332" r="112" fill="#f59e0b" opacity="0.06" />
  <rect x="170" y="108" width="460" height="224" rx="26" fill="#081524" stroke="#38bdf8" stroke-opacity="0.22" />
  <path d="M242 184h151M242 224h204M242 264h129" stroke="#dbeafe" stroke-width="9" stroke-linecap="round" opacity="0.45" />
  <path d="M468 174c22-34 78-34 100 0 22 34-6 84-50 84-20 0-34 10-34 28" fill="none" stroke="#38bdf8" stroke-width="10" stroke-linecap="round" />
  <path d="M480 290l-14 34 34-14" fill="none" stroke="#f59e0b" stroke-width="10" stroke-linecap="round" stroke-linejoin="round" />
  
      <rect x="66" y="54" width="96" height="28" rx="8" fill="#0c1724" stroke="#38bdf8" stroke-opacity="0.22"/>
      <text x="114" y="73" font-family="'IBM Plex Mono', monospace" font-size="11" fill="#38bdf8" text-anchor="middle">#IP-REPUTAT</text>
    
      <rect x="178" y="54" width="96" height="28" rx="8" fill="#0c1724" stroke="#38bdf8" stroke-opacity="0.22"/>
      <text x="226" y="73" font-family="'IBM Plex Mono', monospace" font-size="11" fill="#38bdf8" text-anchor="middle">#EMAIL-SECU</text>
    
  <text x="400" y="372" font-family="'Syne', sans-serif" font-size="18" font-weight="700" fill="#ffffff" text-anchor="middle" letter-spacing="3">DOMAIN SECURITY GUIDE</text>
  <text x="400" y="400" font-family="'IBM Plex Mono', monospace" font-size="11" fill="#38bdf8" opacity="0.82" text-anchor="middle" letter-spacing="2">DELIVERY PATH GUIDE // POST-0040</text>
</svg>