<svg xmlns="http://www.w3.org/2000/svg" viewBox="0 0 800 450" width="100%" height="100%">
  <defs>
    <linearGradient id="grad-49" x1="0%" y1="0%" x2="100%" y2="100%">
      <stop offset="0%" stop-color="#1a1023" />
      <stop offset="100%" stop-color="#3b0764" />
    </linearGradient>
    <pattern id="grid-49" width="40" height="40" patternUnits="userSpaceOnUse">
      <path d="M40 0L0 0 0 40" fill="none" stroke="#c084fc" stroke-width="0.7" opacity="0.08" />
    </pattern>
  </defs>
  <rect width="800" height="450" fill="url(#grad-49)" />
  <rect width="800" height="450" fill="url(#grid-49)" />
  
  <circle cx="141" cy="115" r="88" fill="#c084fc" opacity="0.07" />
  <circle cx="660" cy="310" r="128" fill="#22c55e" opacity="0.06" />
  <rect x="144" y="104" width="498" height="240" rx="28" fill="#130d18" stroke="#c084fc" stroke-opacity="0.24" />
  <path d="M207 160h170M207 205h227M207 250h150" stroke="#f3e8ff" stroke-width="10" stroke-linecap="round" opacity="0.5" />
  <circle cx="512" cy="216" r="58" fill="none" stroke="#c084fc" stroke-width="10" stroke-dasharray="10 8" />
  <path d="M486 216l18 18 36-40" fill="none" stroke="#22c55e" stroke-width="12" stroke-linecap="round" stroke-linejoin="round" />
  
      <rect x="66" y="54" width="96" height="28" rx="8" fill="#0c1724" stroke="#c084fc" stroke-opacity="0.22"/>
      <text x="114" y="73" font-family="'IBM Plex Mono', monospace" font-size="11" fill="#c084fc" text-anchor="middle">#SPF-RECORD</text>
    
      <rect x="178" y="54" width="96" height="28" rx="8" fill="#0c1724" stroke="#c084fc" stroke-opacity="0.22"/>
      <text x="226" y="73" font-family="'IBM Plex Mono', monospace" font-size="11" fill="#c084fc" text-anchor="middle">#DNS-SETUP</text>
    
  <text x="400" y="372" font-family="'Syne', sans-serif" font-size="18" font-weight="700" fill="#ffffff" text-anchor="middle" letter-spacing="3">SPF RECORD REPAIR</text>
  <text x="400" y="400" font-family="'IBM Plex Mono', monospace" font-size="11" fill="#c084fc" opacity="0.82" text-anchor="middle" letter-spacing="2">SPF ALIGNMENT // POST-0049</text>
</svg>