<svg xmlns="http://www.w3.org/2000/svg" viewBox="0 0 800 450" width="100%" height="100%">
  <defs>
    <linearGradient id="grad-15" x1="0%" y1="0%" x2="100%" y2="100%">
      <stop offset="0%" stop-color="#07131a" />
      <stop offset="100%" stop-color="#083344" />
    </linearGradient>
    <pattern id="grid-15" width="40" height="40" patternUnits="userSpaceOnUse">
      <path d="M40 0L0 0 0 40" fill="none" stroke="#22d3ee" stroke-width="0.7" opacity="0.08" />
    </pattern>
  </defs>
  <rect width="800" height="450" fill="url(#grad-15)" />
  <rect width="800" height="450" fill="url(#grid-15)" />
  
  <circle cx="143" cy="115" r="89" fill="#22d3ee" opacity="0.07" />
  <circle cx="648" cy="320" r="104" fill="#34d399" opacity="0.06" />
  <rect x="182" y="104" width="405" height="70" rx="18" fill="#081019" stroke="#22d3ee" stroke-opacity="0.26" />
  <rect x="200" y="170" width="415" height="70" rx="18" fill="#081019" stroke="#34d399" stroke-opacity="0.24" />
  <rect x="225" y="236" width="411" height="70" rx="18" fill="#081019" stroke="#22d3ee" stroke-opacity="0.22" />
  <path d="M232 138h215M250 204h231M275 270h165" stroke="#d5fbff" stroke-width="8" stroke-linecap="round" opacity="0.45" />
  <g transform="translate(578 205)">
    <circle cx="-10" cy="8" r="22" fill="none" stroke="#22d3ee" stroke-width="10"/><path d="M9 8h56m-20 0v18m-15-18v12" fill="none" stroke="#34d399" stroke-width="10" stroke-linecap="round" stroke-linejoin="round"/>
  </g>
  <text x="400" y="372" font-family="'Syne', sans-serif" font-size="18" font-weight="700" fill="#ffffff" text-anchor="middle" letter-spacing="3">HOW DKIM SELECTORS WORK</text>
  <text x="400" y="400" font-family="'IBM Plex Mono', monospace" font-size="11" fill="#22d3ee" opacity="0.8" text-anchor="middle" letter-spacing="2">UNDER THE HOOD // POST-0015</text>
</svg>