<svg xmlns="http://www.w3.org/2000/svg" viewBox="0 0 800 450" width="100%" height="100%">
  <defs>
    <linearGradient id="grad-39" x1="0%" y1="0%" x2="100%" y2="100%">
      <stop offset="0%" stop-color="#1a1023" />
      <stop offset="100%" stop-color="#3b0764" />
    </linearGradient>
    <pattern id="grid-39" width="40" height="40" patternUnits="userSpaceOnUse">
      <path d="M40 0L0 0 0 40" fill="none" stroke="#c084fc" stroke-width="0.7" opacity="0.08" />
    </pattern>
  </defs>
  <rect width="800" height="450" fill="url(#grad-39)" />
  <rect width="800" height="450" fill="url(#grid-39)" />
  
  <circle cx="145" cy="107" r="89" fill="#c084fc" opacity="0.07" />
  <circle cx="664" cy="323" r="120" fill="#22c55e" opacity="0.06" />
  <rect x="183" y="104" width="413" height="70" rx="18" fill="#130d18" stroke="#c084fc" stroke-opacity="0.26" />
  <rect x="203" y="170" width="407" height="70" rx="18" fill="#130d18" stroke="#22c55e" stroke-opacity="0.24" />
  <rect x="221" y="236" width="412" height="70" rx="18" fill="#130d18" stroke="#c084fc" stroke-opacity="0.22" />
  <path d="M233 138h198M253 204h233M271 270h181" stroke="#f3e8ff" stroke-width="8" stroke-linecap="round" opacity="0.45" />
  <g transform="translate(610 205)">
    <rect x="-70" y="-36" width="42" height="72" rx="10" fill="none" stroke="#22c55e" stroke-width="7"/><rect x="-21" y="-36" width="42" height="72" rx="10" fill="none" stroke="#c084fc" stroke-width="7"/><rect x="28" y="-36" width="42" height="72" rx="10" fill="none" stroke="#22c55e" stroke-width="7"/>
  </g>
  <text x="400" y="372" font-family="'Syne', sans-serif" font-size="18" font-weight="700" fill="#ffffff" text-anchor="middle" letter-spacing="3">MANAGING COLD EMAIL CAMPAIG…</text>
  <text x="400" y="400" font-family="'IBM Plex Mono', monospace" font-size="11" fill="#c084fc" opacity="0.8" text-anchor="middle" letter-spacing="2">LEGALLY AND SAFELY // POST-0039</text>
</svg>