<svg xmlns="http://www.w3.org/2000/svg" viewBox="0 0 800 450" width="100%" height="100%">
  <defs>
    <linearGradient id="grad-18" x1="0%" y1="0%" x2="100%" y2="100%">
      <stop offset="0%" stop-color="#0f172a" />
      <stop offset="100%" stop-color="#164e63" />
    </linearGradient>
    <pattern id="grid-18" width="40" height="40" patternUnits="userSpaceOnUse">
      <path d="M40 0L0 0 0 40" fill="none" stroke="#06b6d4" stroke-width="0.7" opacity="0.08" />
    </pattern>
  </defs>
  <rect width="800" height="450" fill="url(#grad-18)" />
  <rect width="800" height="450" fill="url(#grid-18)" />
  
  <circle cx="136" cy="97" r="94" fill="#06b6d4" opacity="0.08" />
  <circle cx="654" cy="334" r="104" fill="#a3e635" opacity="0.06" />
  <rect x="129" y="110" width="546" height="220" rx="28" fill="#0a1420" stroke="#06b6d4" stroke-opacity="0.22" />
  <path d="M210 175h165M210 225h122M210 275h196" stroke="#cffafe" stroke-width="10" stroke-linecap="round" opacity="0.5" />
  <path d="M482 152l89 86-96 60 10-60-50-30z" fill="#06b6d4" opacity="0.18" stroke="#06b6d4" stroke-width="6" />
  <path d="M504 214l26 26 50-60" fill="none" stroke="#a3e635" stroke-width="12" stroke-linecap="round" stroke-linejoin="round" />
  
      <rect x="66" y="54" width="96" height="28" rx="8" fill="#0c1724" stroke="#06b6d4" stroke-opacity="0.22"/>
      <text x="114" y="73" font-family="'IBM Plex Mono', monospace" font-size="11" fill="#06b6d4" text-anchor="middle">#DELIVERABI</text>
    
      <rect x="178" y="54" width="96" height="28" rx="8" fill="#0c1724" stroke="#06b6d4" stroke-opacity="0.22"/>
      <text x="226" y="73" font-family="'IBM Plex Mono', monospace" font-size="11" fill="#06b6d4" text-anchor="middle">#BEST-PRACT</text>
    
  <text x="400" y="372" font-family="'Syne', sans-serif" font-size="18" font-weight="700" fill="#ffffff" text-anchor="middle" letter-spacing="3">HOW SPAM FILTERS SCORE</text>
  <text x="400" y="398" font-family="'IBM Plex Mono', monospace" font-size="11" fill="#06b6d4" opacity="0.82" text-anchor="middle" letter-spacing="2">AND PARSE EMAIL HEADERS // POST-0018</text>
</svg>