<svg xmlns="http://www.w3.org/2000/svg" viewBox="0 0 800 450" width="100%" height="100%">
  <defs>
    <linearGradient id="grad-2" x1="0%" y1="0%" x2="100%" y2="100%">
      <stop offset="0%" stop-color="#140b12" />
      <stop offset="100%" stop-color="#4a1328" />
    </linearGradient>
    <pattern id="grid-2" width="40" height="40" patternUnits="userSpaceOnUse">
      <path d="M40 0L0 0 0 40" fill="none" stroke="#fb7185" stroke-width="0.7" opacity="0.08" />
    </pattern>
  </defs>
  <rect width="800" height="450" fill="url(#grad-2)" />
  <rect width="800" height="450" fill="url(#grid-2)" />
  
  <circle cx="125" cy="96" r="94" fill="#fb7185" opacity="0.08" />
  <circle cx="664" cy="331" r="120" fill="#f97316" opacity="0.06" />
  <rect x="131" y="110" width="546" height="220" rx="28" fill="#1c0f17" stroke="#fb7185" stroke-opacity="0.22" />
  <path d="M207 175h164M207 225h132M207 275h185" stroke="#ffd4dd" stroke-width="10" stroke-linecap="round" opacity="0.5" />
  <path d="M487 152l89 86-96 60 10-60-50-30z" fill="#fb7185" opacity="0.18" stroke="#fb7185" stroke-width="6" />
  <path d="M507 214l26 26 50-60" fill="none" stroke="#f97316" stroke-width="12" stroke-linecap="round" stroke-linejoin="round" />
  
      <rect x="66" y="54" width="96" height="28" rx="8" fill="#0c1724" stroke="#fb7185" stroke-opacity="0.22"/>
      <text x="114" y="73" font-family="'IBM Plex Mono', monospace" font-size="11" fill="#fb7185" text-anchor="middle">#DKIM</text>
    
      <rect x="178" y="54" width="96" height="28" rx="8" fill="#0c1724" stroke="#fb7185" stroke-opacity="0.22"/>
      <text x="226" y="73" font-family="'IBM Plex Mono', monospace" font-size="11" fill="#fb7185" text-anchor="middle">#EMAIL-SECU</text>
    
      <rect x="290" y="54" width="96" height="28" rx="8" fill="#0c1724" stroke="#fb7185" stroke-opacity="0.22"/>
      <text x="338" y="73" font-family="'IBM Plex Mono', monospace" font-size="11" fill="#fb7185" text-anchor="middle">#ALIGNMENT</text>
    
  <text x="400" y="372" font-family="'Syne', sans-serif" font-size="18" font-weight="700" fill="#ffffff" text-anchor="middle" letter-spacing="3">RESOLVING DKIM SIGNATURE</text>
  <text x="400" y="398" font-family="'IBM Plex Mono', monospace" font-size="11" fill="#fb7185" opacity="0.82" text-anchor="middle" letter-spacing="2">ALIGNMENT FAILURES // POST-0002</text>
</svg>