<svg xmlns="http://www.w3.org/2000/svg" viewBox="0 0 800 450" width="100%" height="100%">
  <defs>
    <linearGradient id="grad-78" x1="0%" y1="0%" x2="100%" y2="100%">
      <stop offset="0%" stop-color="#0f172a" />
      <stop offset="100%" stop-color="#164e63" />
    </linearGradient>
    <pattern id="grid-78" width="40" height="40" patternUnits="userSpaceOnUse">
      <path d="M40 0L0 0 0 40" fill="none" stroke="#06b6d4" stroke-width="0.7" opacity="0.08" />
    </pattern>
  </defs>
  <rect width="800" height="450" fill="url(#grad-78)" />
  <rect width="800" height="450" fill="url(#grid-78)" />
  
  <circle cx="141" cy="119" r="98" fill="#06b6d4" opacity="0.07" />
  <circle cx="651" cy="329" r="130" fill="#a3e635" opacity="0.06" />
  <rect x="156" y="110" width="496" height="210" rx="24" fill="#0a1420" stroke="#06b6d4" stroke-opacity="0.25" />
  <path d="M196 160h191M196 195h246M196 230h173M196 265h211" stroke="#cffafe" stroke-width="8" stroke-linecap="round" opacity="0.45" />
  <circle cx="596" cy="220" r="54" fill="none" stroke="#06b6d4" stroke-width="10" />
  <path d="M632 256l38 38" stroke="#a3e635" stroke-width="12" stroke-linecap="round" />
  
      <rect x="66" y="54" width="96" height="28" rx="8" fill="#0c1724" stroke="#06b6d4" stroke-opacity="0.22"/>
      <text x="114" y="73" font-family="'IBM Plex Mono', monospace" font-size="11" fill="#06b6d4" text-anchor="middle">#DELIVERABI</text>
    
      <rect x="178" y="54" width="96" height="28" rx="8" fill="#0c1724" stroke="#06b6d4" stroke-opacity="0.22"/>
      <text x="226" y="73" font-family="'IBM Plex Mono', monospace" font-size="11" fill="#06b6d4" text-anchor="middle">#BEST-PRACT</text>
    
  <text x="400" y="372" font-family="'Syne', sans-serif" font-size="18" font-weight="700" fill="#ffffff" text-anchor="middle" letter-spacing="3">EMAIL AUTH RECORDS</text>
  <text x="400" y="400" font-family="'IBM Plex Mono', monospace" font-size="11" fill="#06b6d4" opacity="0.8" text-anchor="middle" letter-spacing="2">BLOG SEARCH PREVIEW // POST-0078</text>
</svg>