<svg xmlns="http://www.w3.org/2000/svg" viewBox="0 0 800 450" width="100%" height="100%">
  <defs>
    <linearGradient id="grad-1" x1="0%" y1="0%" x2="100%" y2="100%">
      <stop offset="0%" stop-color="#07111f" />
      <stop offset="100%" stop-color="#0f3b5f" />
    </linearGradient>
    <pattern id="grid-1" width="40" height="40" patternUnits="userSpaceOnUse">
      <path d="M40 0L0 0 0 40" fill="none" stroke="#38bdf8" stroke-width="0.7" opacity="0.08" />
    </pattern>
  </defs>
  <rect width="800" height="450" fill="url(#grad-1)" />
  <rect width="800" height="450" fill="url(#grid-1)" />
  
  <circle cx="137" cy="112" r="88" fill="#38bdf8" opacity="0.07" />
  <circle cx="659" cy="307" r="113" fill="#22c55e" opacity="0.06" />
  <rect x="143" y="103" width="498" height="240" rx="28" fill="#06101b" stroke="#38bdf8" stroke-opacity="0.24" />
  <path d="M205 160h170M205 205h226M205 250h147" stroke="#d7f3ff" stroke-width="10" stroke-linecap="round" opacity="0.5" />
  <circle cx="511" cy="215" r="58" fill="none" stroke="#38bdf8" stroke-width="10" stroke-dasharray="10 8" />
  <path d="M485 215l18 18 36-40" fill="none" stroke="#22c55e" stroke-width="12" stroke-linecap="round" stroke-linejoin="round" />
  
      <rect x="66" y="54" width="96" height="28" rx="8" fill="#0c1724" stroke="#38bdf8" stroke-opacity="0.22"/>
      <text x="114" y="73" font-family="'IBM Plex Mono', monospace" font-size="11" fill="#38bdf8" text-anchor="middle">#SPF</text>
    
      <rect x="178" y="54" width="96" height="28" rx="8" fill="#0c1724" stroke="#38bdf8" stroke-opacity="0.22"/>
      <text x="226" y="73" font-family="'IBM Plex Mono', monospace" font-size="11" fill="#38bdf8" text-anchor="middle">#GOOGLE-WOR</text>
    
      <rect x="290" y="54" width="96" height="28" rx="8" fill="#0c1724" stroke="#38bdf8" stroke-opacity="0.22"/>
      <text x="338" y="73" font-family="'IBM Plex Mono', monospace" font-size="11" fill="#38bdf8" text-anchor="middle">#DNS-CONFIG</text>
    
  <text x="400" y="372" font-family="'Syne', sans-serif" font-size="18" font-weight="700" fill="#ffffff" text-anchor="middle" letter-spacing="3">SPF RECORD REPAIR</text>
  <text x="400" y="400" font-family="'IBM Plex Mono', monospace" font-size="11" fill="#38bdf8" opacity="0.82" text-anchor="middle" letter-spacing="2">SPF ALIGNMENT // POST-0001</text>
</svg>