<svg xmlns="http://www.w3.org/2000/svg" viewBox="0 0 800 450" width="100%" height="100%">
  <defs>
    <linearGradient id="grad-31" x1="0%" y1="0%" x2="100%" y2="100%">
      <stop offset="0%" stop-color="#07111f" />
      <stop offset="100%" stop-color="#0f3b5f" />
    </linearGradient>
    <pattern id="grid-31" width="40" height="40" patternUnits="userSpaceOnUse">
      <path d="M40 0L0 0 0 40" fill="none" stroke="#38bdf8" stroke-width="0.7" opacity="0.08" />
    </pattern>
  </defs>
  <rect width="800" height="450" fill="url(#grad-31)" />
  <rect width="800" height="450" fill="url(#grid-31)" />
  
  <circle cx="125" cy="116" r="89" fill="#38bdf8" opacity="0.07" />
  <circle cx="638" cy="318" r="108" fill="#22c55e" opacity="0.06" />
  <rect x="179" y="104" width="400" height="70" rx="18" fill="#06101b" stroke="#38bdf8" stroke-opacity="0.26" />
  <rect x="198" y="170" width="416" height="70" rx="18" fill="#06101b" stroke="#22c55e" stroke-opacity="0.24" />
  <rect x="226" y="236" width="402" height="70" rx="18" fill="#06101b" stroke="#38bdf8" stroke-opacity="0.22" />
  <path d="M229 138h216M248 204h213M276 270h155" stroke="#d7f3ff" stroke-width="8" stroke-linecap="round" opacity="0.45" />
  <g transform="translate(586 205)">
    <path d="M0 -40l48 16v40c0 28-19 52-48 66-29-14-48-38-48-66v-40z" fill="none" stroke="#38bdf8" stroke-width="10"/><path d="M-18 6l15 15 28-34" fill="none" stroke="#22c55e" stroke-width="10" stroke-linecap="round" stroke-linejoin="round"/>
  </g>
  <text x="400" y="372" font-family="'Syne', sans-serif" font-size="18" font-weight="700" fill="#ffffff" text-anchor="middle" letter-spacing="3">CONFIGURING SPF FOR MULTIPLE</text>
  <text x="400" y="400" font-family="'IBM Plex Mono', monospace" font-size="11" fill="#38bdf8" opacity="0.8" text-anchor="middle" letter-spacing="2">THIRD-PARTY SENDERS SAFELY // POST-0031</text>
</svg>