<svg xmlns="http://www.w3.org/2000/svg" viewBox="0 0 800 450" width="100%" height="100%">
  <defs>
    <linearGradient id="grad-65" x1="0%" y1="0%" x2="100%" y2="100%">
      <stop offset="0%" stop-color="#07131a" />
      <stop offset="100%" stop-color="#083344" />
    </linearGradient>
    <pattern id="grid-65" width="40" height="40" patternUnits="userSpaceOnUse">
      <path d="M40 0L0 0 0 40" fill="none" stroke="#22d3ee" stroke-width="0.7" opacity="0.08" />
    </pattern>
  </defs>
  <rect width="800" height="450" fill="url(#grad-65)" />
  <rect width="800" height="450" fill="url(#grid-65)" />
  
  <circle cx="123" cy="116" r="88" fill="#22d3ee" opacity="0.07" />
  <circle cx="650" cy="311" r="108" fill="#34d399" opacity="0.06" />
  <rect x="140" y="104" width="498" height="240" rx="28" fill="#081019" stroke="#22d3ee" stroke-opacity="0.24" />
  <path d="M201 160h170M201 205h217M201 250h151" stroke="#d5fbff" stroke-width="10" stroke-linecap="round" opacity="0.5" />
  <circle cx="502" cy="216" r="58" fill="none" stroke="#22d3ee" stroke-width="10" stroke-dasharray="10 8" />
  <path d="M476 216l18 18 36-40" fill="none" stroke="#34d399" stroke-width="12" stroke-linecap="round" stroke-linejoin="round" />
  
      <rect x="66" y="54" width="96" height="28" rx="8" fill="#0c1724" stroke="#22d3ee" stroke-opacity="0.22"/>
      <text x="114" y="73" font-family="'IBM Plex Mono', monospace" font-size="11" fill="#22d3ee" text-anchor="middle">#IP-REPUTAT</text>
    
      <rect x="178" y="54" width="96" height="28" rx="8" fill="#0c1724" stroke="#22d3ee" stroke-opacity="0.22"/>
      <text x="226" y="73" font-family="'IBM Plex Mono', monospace" font-size="11" fill="#22d3ee" text-anchor="middle">#EMAIL-SECU</text>
    
  <text x="400" y="372" font-family="'Syne', sans-serif" font-size="18" font-weight="700" fill="#ffffff" text-anchor="middle" letter-spacing="3">DOMAIN SECURITY GUIDE</text>
  <text x="400" y="400" font-family="'IBM Plex Mono', monospace" font-size="11" fill="#22d3ee" opacity="0.82" text-anchor="middle" letter-spacing="2">SENDER TRUST // POST-0065</text>
</svg>