<svg xmlns="http://www.w3.org/2000/svg" viewBox="0 0 800 450" width="100%" height="100%">
  <defs>
    <linearGradient id="grad-64" x1="0%" y1="0%" x2="100%" y2="100%">
      <stop offset="0%" stop-color="#10140b" />
      <stop offset="100%" stop-color="#2f3f14" />
    </linearGradient>
    <pattern id="grid-64" width="40" height="40" patternUnits="userSpaceOnUse">
      <path d="M40 0L0 0 0 40" fill="none" stroke="#84cc16" stroke-width="0.7" opacity="0.08" />
    </pattern>
  </defs>
  <rect width="800" height="450" fill="url(#grad-64)" />
  <rect width="800" height="450" fill="url(#grid-64)" />
  
  <circle cx="172" cy="94" r="80" fill="#84cc16" opacity="0.07" />
  <circle cx="652" cy="333" r="132" fill="#facc15" opacity="0.06" />
  <rect x="138" y="108" width="524" height="224" rx="26" fill="#11180b" stroke="#84cc16" stroke-opacity="0.22" />
  <path d="M210 184h153M210 224h220M210 264h112" stroke="#ecfccb" stroke-width="9" stroke-linecap="round" opacity="0.45" />
  <path d="M500 174c22-34 78-34 100 0 22 34-6 84-50 84-20 0-34 10-34 28" fill="none" stroke="#84cc16" stroke-width="10" stroke-linecap="round" />
  <path d="M512 290l-14 34 34-14" fill="none" stroke="#facc15" stroke-width="10" stroke-linecap="round" stroke-linejoin="round" />
  
      <rect x="66" y="54" width="96" height="28" rx="8" fill="#0c1724" stroke="#84cc16" stroke-opacity="0.22"/>
      <text x="114" y="73" font-family="'IBM Plex Mono', monospace" font-size="11" fill="#84cc16" text-anchor="middle">#SPF-RECORD</text>
    
      <rect x="178" y="54" width="96" height="28" rx="8" fill="#0c1724" stroke="#84cc16" stroke-opacity="0.22"/>
      <text x="226" y="73" font-family="'IBM Plex Mono', monospace" font-size="11" fill="#84cc16" text-anchor="middle">#EMAIL-SECU</text>
    
  <text x="400" y="372" font-family="'Syne', sans-serif" font-size="18" font-weight="700" fill="#ffffff" text-anchor="middle" letter-spacing="3">SPF RECORD REPAIR</text>
  <text x="400" y="400" font-family="'IBM Plex Mono', monospace" font-size="11" fill="#84cc16" opacity="0.82" text-anchor="middle" letter-spacing="2">DELIVERY PATH GUIDE // POST-0064</text>
</svg>