<svg xmlns="http://www.w3.org/2000/svg" viewBox="0 0 800 450" width="100%" height="100%">
  <defs>
    <linearGradient id="grad-73" x1="0%" y1="0%" x2="100%" y2="100%">
      <stop offset="0%" stop-color="#0c1020" />
      <stop offset="100%" stop-color="#1e1b4b" />
    </linearGradient>
    <pattern id="grid-73" width="40" height="40" patternUnits="userSpaceOnUse">
      <path d="M40 0L0 0 0 40" fill="none" stroke="#a78bfa" stroke-width="0.7" opacity="0.08" />
    </pattern>
  </defs>
  <rect width="800" height="450" fill="url(#grad-73)" />
  <rect width="800" height="450" fill="url(#grid-73)" />
  
  <circle cx="143" cy="135" r="88" fill="#a78bfa" opacity="0.07" />
  <circle cx="676" cy="330" r="123" fill="#22c55e" opacity="0.06" />
  <rect x="149" y="109" width="498" height="240" rx="28" fill="#0a0f1e" stroke="#a78bfa" stroke-opacity="0.24" />
  <path d="M207 160h170M207 205h243M207 250h170" stroke="#ddd6fe" stroke-width="10" stroke-linecap="round" opacity="0.5" />
  <circle cx="528" cy="221" r="58" fill="none" stroke="#a78bfa" stroke-width="10" stroke-dasharray="10 8" />
  <path d="M502 221l18 18 36-40" fill="none" stroke="#22c55e" stroke-width="12" stroke-linecap="round" stroke-linejoin="round" />
  
      <rect x="66" y="54" width="96" height="28" rx="8" fill="#0c1724" stroke="#a78bfa" stroke-opacity="0.22"/>
      <text x="114" y="73" font-family="'IBM Plex Mono', monospace" font-size="11" fill="#a78bfa" text-anchor="middle">#DELIVERABI</text>
    
      <rect x="178" y="54" width="96" height="28" rx="8" fill="#0c1724" stroke="#a78bfa" stroke-opacity="0.22"/>
      <text x="226" y="73" font-family="'IBM Plex Mono', monospace" font-size="11" fill="#a78bfa" text-anchor="middle">#BEST-PRACT</text>
    
  <text x="400" y="372" font-family="'Syne', sans-serif" font-size="18" font-weight="700" fill="#ffffff" text-anchor="middle" letter-spacing="3">EMAIL AUTH RECORDS</text>
  <text x="400" y="400" font-family="'IBM Plex Mono', monospace" font-size="11" fill="#a78bfa" opacity="0.82" text-anchor="middle" letter-spacing="2">AUTH STACK // POST-0073</text>
</svg>