<svg xmlns="http://www.w3.org/2000/svg" viewBox="0 0 800 450" width="100%" height="100%">
  <defs>
    <linearGradient id="grad-74" x1="0%" y1="0%" x2="100%" y2="100%">
      <stop offset="0%" stop-color="#10140b" />
      <stop offset="100%" stop-color="#2f3f14" />
    </linearGradient>
    <pattern id="grid-74" width="40" height="40" patternUnits="userSpaceOnUse">
      <path d="M40 0L0 0 0 40" fill="none" stroke="#84cc16" stroke-width="0.7" opacity="0.08" />
    </pattern>
  </defs>
  <rect width="800" height="450" fill="url(#grad-74)" />
  <rect width="800" height="450" fill="url(#grid-74)" />
  
  <circle cx="131" cy="82" r="94" fill="#84cc16" opacity="0.08" />
  <circle cx="650" cy="332" r="120" fill="#facc15" opacity="0.06" />
  <rect x="128" y="110" width="546" height="220" rx="28" fill="#11180b" stroke="#84cc16" stroke-opacity="0.22" />
  <path d="M208 175h150M208 225h118M208 275h191" stroke="#ecfccb" stroke-width="10" stroke-linecap="round" opacity="0.5" />
  <path d="M480 152l82 86-96 60 10-60-50-30z" fill="#84cc16" opacity="0.18" stroke="#84cc16" stroke-width="6" />
  <path d="M502 214l26 26 50-60" fill="none" stroke="#facc15" stroke-width="12" stroke-linecap="round" stroke-linejoin="round" />
  
      <rect x="66" y="54" width="96" height="28" rx="8" fill="#0c1724" stroke="#84cc16" stroke-opacity="0.22"/>
      <text x="114" y="73" font-family="'IBM Plex Mono', monospace" font-size="11" fill="#84cc16" text-anchor="middle">#BLACKLISTS</text>
    
      <rect x="178" y="54" width="96" height="28" rx="8" fill="#0c1724" stroke="#84cc16" stroke-opacity="0.22"/>
      <text x="226" y="73" font-family="'IBM Plex Mono', monospace" font-size="11" fill="#84cc16" text-anchor="middle">#EMAIL-SECU</text>
    
  <text x="400" y="372" font-family="'Syne', sans-serif" font-size="18" font-weight="700" fill="#ffffff" text-anchor="middle" letter-spacing="3">UNDERSTANDING SPAMCOP AND</text>
  <text x="400" y="398" font-family="'IBM Plex Mono', monospace" font-size="11" fill="#84cc16" opacity="0.82" text-anchor="middle" letter-spacing="2">UCEPROTECT BLACKLIST DELISTING // POST-0074</text>
</svg>