<svg xmlns="http://www.w3.org/2000/svg" viewBox="0 0 800 450" width="100%" height="100%">
  <defs>
    <linearGradient id="grad-56" x1="0%" y1="0%" x2="100%" y2="100%">
      <stop offset="0%" stop-color="#120d24" />
      <stop offset="100%" stop-color="#2b1760" />
    </linearGradient>
    <pattern id="grid-56" width="40" height="40" patternUnits="userSpaceOnUse">
      <path d="M40 0L0 0 0 40" fill="none" stroke="#8b5cf6" stroke-width="0.7" opacity="0.08" />
    </pattern>
  </defs>
  <rect width="800" height="450" fill="url(#grad-56)" />
  <rect width="800" height="450" fill="url(#grid-56)" />
  
  <circle cx="177" cy="103" r="80" fill="#8b5cf6" opacity="0.07" />
  <circle cx="657" cy="334" r="117" fill="#22d3ee" opacity="0.06" />
  <rect x="162" y="108" width="476" height="224" rx="26" fill="#100d1a" stroke="#8b5cf6" stroke-opacity="0.22" />
  <path d="M234 184h162M234 224h225M234 264h130" stroke="#e9ddff" stroke-width="9" stroke-linecap="round" opacity="0.45" />
  <path d="M476 174c22-34 78-34 100 0 22 34-6 84-50 84-20 0-34 10-34 28" fill="none" stroke="#8b5cf6" stroke-width="10" stroke-linecap="round" />
  <path d="M488 290l-14 34 34-14" fill="none" stroke="#22d3ee" stroke-width="10" stroke-linecap="round" stroke-linejoin="round" />
  
      <rect x="66" y="54" width="96" height="28" rx="8" fill="#0c1724" stroke="#8b5cf6" stroke-opacity="0.22"/>
      <text x="114" y="73" font-family="'IBM Plex Mono', monospace" font-size="11" fill="#8b5cf6" text-anchor="middle">#DELIVERABI</text>
    
      <rect x="178" y="54" width="96" height="28" rx="8" fill="#0c1724" stroke="#8b5cf6" stroke-opacity="0.22"/>
      <text x="226" y="73" font-family="'IBM Plex Mono', monospace" font-size="11" fill="#8b5cf6" text-anchor="middle">#BEST-PRACT</text>
    
  <text x="400" y="372" font-family="'Syne', sans-serif" font-size="18" font-weight="700" fill="#ffffff" text-anchor="middle" letter-spacing="3">EMAIL AUTH RECORDS</text>
  <text x="400" y="400" font-family="'IBM Plex Mono', monospace" font-size="11" fill="#8b5cf6" opacity="0.82" text-anchor="middle" letter-spacing="2">DELIVERY PATH GUIDE // POST-0056</text>
</svg>