<svg xmlns="http://www.w3.org/2000/svg" viewBox="0 0 800 450" width="100%" height="100%">
  <defs>
    <linearGradient id="grad-25" x1="0%" y1="0%" x2="100%" y2="100%">
      <stop offset="0%" stop-color="#07131a" />
      <stop offset="100%" stop-color="#083344" />
    </linearGradient>
    <pattern id="grid-25" width="40" height="40" patternUnits="userSpaceOnUse">
      <path d="M40 0L0 0 0 40" fill="none" stroke="#22d3ee" stroke-width="0.7" opacity="0.08" />
    </pattern>
  </defs>
  <rect width="800" height="450" fill="url(#grad-25)" />
  <rect width="800" height="450" fill="url(#grid-25)" />
  
  <circle cx="139" cy="132" r="88" fill="#22d3ee" opacity="0.07" />
  <circle cx="675" cy="327" r="108" fill="#34d399" opacity="0.06" />
  <rect x="149" y="108" width="498" height="240" rx="28" fill="#081019" stroke="#22d3ee" stroke-opacity="0.24" />
  <path d="M206 160h170M206 205h242M206 250h167" stroke="#d5fbff" stroke-width="10" stroke-linecap="round" opacity="0.5" />
  <circle cx="527" cy="220" r="58" fill="none" stroke="#22d3ee" stroke-width="10" stroke-dasharray="10 8" />
  <path d="M501 220l18 18 36-40" fill="none" stroke="#34d399" stroke-width="12" stroke-linecap="round" stroke-linejoin="round" />
  
      <rect x="66" y="54" width="96" height="28" rx="8" fill="#0c1724" stroke="#22d3ee" stroke-opacity="0.22"/>
      <text x="114" y="73" font-family="'IBM Plex Mono', monospace" font-size="11" fill="#22d3ee" text-anchor="middle">#DELIVERABI</text>
    
      <rect x="178" y="54" width="96" height="28" rx="8" fill="#0c1724" stroke="#22d3ee" stroke-opacity="0.22"/>
      <text x="226" y="73" font-family="'IBM Plex Mono', monospace" font-size="11" fill="#22d3ee" text-anchor="middle">#BEST-PRACT</text>
    
  <text x="400" y="372" font-family="'Syne', sans-serif" font-size="18" font-weight="700" fill="#ffffff" text-anchor="middle" letter-spacing="3">EMAIL AUTH RECORDS</text>
  <text x="400" y="400" font-family="'IBM Plex Mono', monospace" font-size="11" fill="#22d3ee" opacity="0.82" text-anchor="middle" letter-spacing="2">AUTH STACK // POST-0025</text>
</svg>