<svg xmlns="http://www.w3.org/2000/svg" viewBox="0 0 800 450" width="100%" height="100%">
  <defs>
    <linearGradient id="grad-70" x1="0%" y1="0%" x2="100%" y2="100%">
      <stop offset="0%" stop-color="#09203a" />
      <stop offset="100%" stop-color="#1e3a8a" />
    </linearGradient>
    <pattern id="grid-70" width="40" height="40" patternUnits="userSpaceOnUse">
      <path d="M40 0L0 0 0 40" fill="none" stroke="#38bdf8" stroke-width="0.7" opacity="0.08" />
    </pattern>
  </defs>
  <rect width="800" height="450" fill="url(#grad-70)" />
  <rect width="800" height="450" fill="url(#grid-70)" />
  
  <circle cx="121" cy="113" r="98" fill="#38bdf8" opacity="0.07" />
  <circle cx="656" cy="330" r="130" fill="#f59e0b" opacity="0.06" />
  <rect x="180" y="110" width="448" height="210" rx="24" fill="#081524" stroke="#38bdf8" stroke-opacity="0.25" />
  <path d="M220 160h171M220 195h251M220 230h154M220 265h191" stroke="#dbeafe" stroke-width="8" stroke-linecap="round" opacity="0.45" />
  <circle cx="572" cy="221" r="54" fill="none" stroke="#38bdf8" stroke-width="10" />
  <path d="M608 257l38 38" stroke="#f59e0b" stroke-width="12" stroke-linecap="round" />
  
      <rect x="66" y="54" width="96" height="28" rx="8" fill="#0c1724" stroke="#38bdf8" stroke-opacity="0.22"/>
      <text x="114" y="73" font-family="'IBM Plex Mono', monospace" font-size="11" fill="#38bdf8" text-anchor="middle">#DELIVERABI</text>
    
      <rect x="178" y="54" width="96" height="28" rx="8" fill="#0c1724" stroke="#38bdf8" stroke-opacity="0.22"/>
      <text x="226" y="73" font-family="'IBM Plex Mono', monospace" font-size="11" fill="#38bdf8" text-anchor="middle">#BEST-PRACT</text>
    
  <text x="400" y="372" font-family="'Syne', sans-serif" font-size="18" font-weight="700" fill="#ffffff" text-anchor="middle" letter-spacing="3">EMAIL AUTH RECORDS</text>
  <text x="400" y="400" font-family="'IBM Plex Mono', monospace" font-size="11" fill="#38bdf8" opacity="0.8" text-anchor="middle" letter-spacing="2">BLOG SEARCH PREVIEW // POST-0070</text>
</svg>