<svg xmlns="http://www.w3.org/2000/svg" viewBox="0 0 800 450" width="100%" height="100%">
  <defs>
    <linearGradient id="grad-41" x1="0%" y1="0%" x2="100%" y2="100%">
      <stop offset="0%" stop-color="#07111f" />
      <stop offset="100%" stop-color="#0f3b5f" />
    </linearGradient>
    <pattern id="grid-41" width="40" height="40" patternUnits="userSpaceOnUse">
      <path d="M40 0L0 0 0 40" fill="none" stroke="#38bdf8" stroke-width="0.7" opacity="0.08" />
    </pattern>
  </defs>
  <rect width="800" height="450" fill="url(#grad-41)" />
  <rect width="800" height="450" fill="url(#grid-41)" />
  
  <circle cx="121" cy="133" r="88" fill="#38bdf8" opacity="0.07" />
  <circle cx="665" cy="328" r="113" fill="#22c55e" opacity="0.06" />
  <rect x="145" y="109" width="498" height="240" rx="28" fill="#06101b" stroke="#38bdf8" stroke-opacity="0.24" />
  <path d="M200 160h170M200 205h232M200 250h168" stroke="#d7f3ff" stroke-width="10" stroke-linecap="round" opacity="0.5" />
  <circle cx="517" cy="221" r="58" fill="none" stroke="#38bdf8" stroke-width="10" stroke-dasharray="10 8" />
  <path d="M491 221l18 18 36-40" fill="none" stroke="#22c55e" stroke-width="12" stroke-linecap="round" stroke-linejoin="round" />
  
      <rect x="66" y="54" width="96" height="28" rx="8" fill="#0c1724" stroke="#38bdf8" stroke-opacity="0.22"/>
      <text x="114" y="73" font-family="'IBM Plex Mono', monospace" font-size="11" fill="#38bdf8" text-anchor="middle">#DKIM-KEYS</text>
    
      <rect x="178" y="54" width="96" height="28" rx="8" fill="#0c1724" stroke="#38bdf8" stroke-opacity="0.22"/>
      <text x="226" y="73" font-family="'IBM Plex Mono', monospace" font-size="11" fill="#38bdf8" text-anchor="middle">#EMAIL-SECU</text>
    
  <text x="400" y="372" font-family="'Syne', sans-serif" font-size="18" font-weight="700" fill="#ffffff" text-anchor="middle" letter-spacing="3">DKIM KEY RESOLUTION</text>
  <text x="400" y="400" font-family="'IBM Plex Mono', monospace" font-size="11" fill="#38bdf8" opacity="0.82" text-anchor="middle" letter-spacing="2">DKIM SELECTOR // POST-0041</text>
</svg>