<svg xmlns="http://www.w3.org/2000/svg" viewBox="0 0 800 450" width="100%" height="100%">
  <defs>
    <linearGradient id="grad-6" x1="0%" y1="0%" x2="100%" y2="100%">
      <stop offset="0%" stop-color="#120d24" />
      <stop offset="100%" stop-color="#2b1760" />
    </linearGradient>
    <pattern id="grid-6" width="40" height="40" patternUnits="userSpaceOnUse">
      <path d="M40 0L0 0 0 40" fill="none" stroke="#8b5cf6" stroke-width="0.7" opacity="0.08" />
    </pattern>
  </defs>
  <rect width="800" height="450" fill="url(#grad-6)" />
  <rect width="800" height="450" fill="url(#grid-6)" />
  
  <circle cx="135" cy="111" r="98" fill="#8b5cf6" opacity="0.07" />
  <circle cx="634" cy="325" r="130" fill="#22d3ee" opacity="0.06" />
  <rect x="172" y="110" width="464" height="210" rx="24" fill="#100d1a" stroke="#8b5cf6" stroke-opacity="0.25" />
  <path d="M212 160h185M212 195h229M212 230h150M212 265h205" stroke="#e9ddff" stroke-width="8" stroke-linecap="round" opacity="0.45" />
  <circle cx="580" cy="216" r="54" fill="none" stroke="#8b5cf6" stroke-width="10" />
  <path d="M616 252l38 38" stroke="#22d3ee" stroke-width="12" stroke-linecap="round" />
  
      <rect x="66" y="54" width="96" height="28" rx="8" fill="#0c1724" stroke="#8b5cf6" stroke-opacity="0.22"/>
      <text x="114" y="73" font-family="'IBM Plex Mono', monospace" font-size="11" fill="#8b5cf6" text-anchor="middle">#BIMI</text>
    
      <rect x="178" y="54" width="96" height="28" rx="8" fill="#0c1724" stroke="#8b5cf6" stroke-opacity="0.22"/>
      <text x="226" y="73" font-family="'IBM Plex Mono', monospace" font-size="11" fill="#8b5cf6" text-anchor="middle">#BRANDING</text>
    
      <rect x="290" y="54" width="96" height="28" rx="8" fill="#0c1724" stroke="#8b5cf6" stroke-opacity="0.22"/>
      <text x="338" y="73" font-family="'IBM Plex Mono', monospace" font-size="11" fill="#8b5cf6" text-anchor="middle">#INBOX-LOGO</text>
    
  <text x="400" y="372" font-family="'Syne', sans-serif" font-size="18" font-weight="700" fill="#ffffff" text-anchor="middle" letter-spacing="3">DOMAIN DNS CHECK</text>
  <text x="400" y="400" font-family="'IBM Plex Mono', monospace" font-size="11" fill="#8b5cf6" opacity="0.8" text-anchor="middle" letter-spacing="2">BLOG SEARCH PREVIEW // POST-0006</text>
</svg>