<svg xmlns="http://www.w3.org/2000/svg" viewBox="0 0 800 450" width="100%" height="100%">
  <defs>
    <linearGradient id="grad-43" x1="0%" y1="0%" x2="100%" y2="100%">
      <stop offset="0%" stop-color="#0c1020" />
      <stop offset="100%" stop-color="#1e1b4b" />
    </linearGradient>
    <pattern id="grid-43" width="40" height="40" patternUnits="userSpaceOnUse">
      <path d="M40 0L0 0 0 40" fill="none" stroke="#a78bfa" stroke-width="0.7" opacity="0.08" />
    </pattern>
  </defs>
  <rect width="800" height="450" fill="url(#grad-43)" />
  <rect width="800" height="450" fill="url(#grid-43)" />
  
  <path d="M0 350Q170 300 332 340T640 328T800 350V450H0Z" fill="#22c55e" opacity="0.08" />
  <circle cx="158" cy="102" r="83" fill="#a78bfa" opacity="0.08" />
  <rect x="146" y="98" width="508" height="236" rx="26" fill="#0a0f1e" stroke="#a78bfa" stroke-opacity="0.24" />
  <circle cx="182" cy="128" r="8" fill="#a78bfa" opacity="0.8" />
  <circle cx="208" cy="128" r="8" fill="#22c55e" opacity="0.8" />
  <circle cx="234" cy="128" r="8" fill="#ffffff" opacity="0.5" />
  <path d="M202 170h143M202 210h196M202 250h118" stroke="#ddd6fe" stroke-width="9" stroke-linecap="round" opacity="0.45" />
  <circle cx="546" cy="207" r="60" fill="none" stroke="#a78bfa" stroke-width="10" />
  <path d="M584 247l38 38" stroke="#22c55e" stroke-width="12" stroke-linecap="round" />
  
      <rect x="66" y="54" width="96" height="28" rx="8" fill="#0c1724" stroke="#a78bfa" stroke-opacity="0.22"/>
      <text x="114" y="73" font-family="'IBM Plex Mono', monospace" font-size="11" fill="#a78bfa" text-anchor="middle">#DELIVERABI</text>
    
      <rect x="178" y="54" width="96" height="28" rx="8" fill="#0c1724" stroke="#a78bfa" stroke-opacity="0.22"/>
      <text x="226" y="73" font-family="'IBM Plex Mono', monospace" font-size="11" fill="#a78bfa" text-anchor="middle">#BEST-PRACT</text>
    
  <text x="400" y="372" font-family="'Syne', sans-serif" font-size="18" font-weight="700" fill="#ffffff" text-anchor="middle" letter-spacing="3">WHAT IS THE REAL DIFFERENCE B…</text>
  <text x="400" y="400" font-family="'IBM Plex Mono', monospace" font-size="11" fill="#a78bfa" opacity="0.82" text-anchor="middle" letter-spacing="2">LIVE RECORD LOOKUP // POST-0043</text>
</svg>