<svg xmlns="http://www.w3.org/2000/svg" viewBox="0 0 800 450" width="100%" height="100%">
  <defs>
    <linearGradient id="grad-50" x1="0%" y1="0%" x2="100%" y2="100%">
      <stop offset="0%" stop-color="#09203a" />
      <stop offset="100%" stop-color="#1e3a8a" />
    </linearGradient>
    <pattern id="grid-50" width="40" height="40" patternUnits="userSpaceOnUse">
      <path d="M40 0L0 0 0 40" fill="none" stroke="#38bdf8" stroke-width="0.7" opacity="0.08" />
    </pattern>
  </defs>
  <rect width="800" height="450" fill="url(#grad-50)" />
  <rect width="800" height="450" fill="url(#grid-50)" />
  
  <circle cx="129" cy="99" r="94" fill="#38bdf8" opacity="0.08" />
  <circle cx="665" cy="332" r="120" fill="#f59e0b" opacity="0.06" />
  <rect x="131" y="110" width="546" height="220" rx="28" fill="#081524" stroke="#38bdf8" stroke-opacity="0.22" />
  <path d="M208 175h167M208 225h133M208 275h189" stroke="#dbeafe" stroke-width="10" stroke-linecap="round" opacity="0.5" />
  <path d="M487 152l90 86-96 60 10-60-50-30z" fill="#38bdf8" opacity="0.18" stroke="#38bdf8" stroke-width="6" />
  <path d="M507 214l26 26 50-60" fill="none" stroke="#f59e0b" stroke-width="12" stroke-linecap="round" stroke-linejoin="round" />
  
      <rect x="66" y="54" width="96" height="28" rx="8" fill="#0c1724" stroke="#38bdf8" stroke-opacity="0.22"/>
      <text x="114" y="73" font-family="'IBM Plex Mono', monospace" font-size="11" fill="#38bdf8" text-anchor="middle">#DMARC-POLI</text>
    
      <rect x="178" y="54" width="96" height="28" rx="8" fill="#0c1724" stroke="#38bdf8" stroke-opacity="0.22"/>
      <text x="226" y="73" font-family="'IBM Plex Mono', monospace" font-size="11" fill="#38bdf8" text-anchor="middle">#EMAIL-SECU</text>
    
  <text x="400" y="372" font-family="'Syne', sans-serif" font-size="18" font-weight="700" fill="#ffffff" text-anchor="middle" letter-spacing="3">DMARC ALIGNMENT DEEP DIVE I…</text>
  <text x="400" y="398" font-family="'IBM Plex Mono', monospace" font-size="11" fill="#38bdf8" opacity="0.82" text-anchor="middle" letter-spacing="2">RELAXED VS STRICT MODE // POST-0050</text>
</svg>