<svg xmlns="http://www.w3.org/2000/svg" viewBox="0 0 800 450" width="100%" height="100%">
  <defs>
    <linearGradient id="grad-35" x1="0%" y1="0%" x2="100%" y2="100%">
      <stop offset="0%" stop-color="#07131a" />
      <stop offset="100%" stop-color="#083344" />
    </linearGradient>
    <pattern id="grid-35" width="40" height="40" patternUnits="userSpaceOnUse">
      <path d="M40 0L0 0 0 40" fill="none" stroke="#22d3ee" stroke-width="0.7" opacity="0.08" />
    </pattern>
  </defs>
  <rect width="800" height="450" fill="url(#grad-35)" />
  <rect width="800" height="450" fill="url(#grid-35)" />
  
  <path d="M0 353Q170 300 332 349T640 330T800 350V450H0Z" fill="#34d399" opacity="0.08" />
  <circle cx="163" cy="111" r="83" fill="#22d3ee" opacity="0.08" />
  <rect x="170" y="98" width="460" height="236" rx="26" fill="#081019" stroke="#22d3ee" stroke-opacity="0.24" />
  <circle cx="206" cy="128" r="8" fill="#22d3ee" opacity="0.8" />
  <circle cx="232" cy="128" r="8" fill="#34d399" opacity="0.8" />
  <circle cx="258" cy="128" r="8" fill="#ffffff" opacity="0.5" />
  <path d="M226 170h161M226 210h205M226 250h123" stroke="#d5fbff" stroke-width="9" stroke-linecap="round" opacity="0.45" />
  <circle cx="522" cy="208" r="54" fill="none" stroke="#22d3ee" stroke-width="10" />
  <path d="M560 248l38 38" stroke="#34d399" stroke-width="12" stroke-linecap="round" />
  
      <rect x="66" y="54" width="96" height="28" rx="8" fill="#0c1724" stroke="#22d3ee" stroke-opacity="0.22"/>
      <text x="114" y="73" font-family="'IBM Plex Mono', monospace" font-size="11" fill="#22d3ee" text-anchor="middle">#DELIVERABI</text>
    
      <rect x="178" y="54" width="96" height="28" rx="8" fill="#0c1724" stroke="#22d3ee" stroke-opacity="0.22"/>
      <text x="226" y="73" font-family="'IBM Plex Mono', monospace" font-size="11" fill="#22d3ee" text-anchor="middle">#BEST-PRACT</text>
    
  <text x="400" y="372" font-family="'Syne', sans-serif" font-size="18" font-weight="700" fill="#ffffff" text-anchor="middle" letter-spacing="3">HOW TO SET UP CUSTOM RETURN-P…</text>
  <text x="400" y="400" font-family="'IBM Plex Mono', monospace" font-size="11" fill="#22d3ee" opacity="0.82" text-anchor="middle" letter-spacing="2">LIVE RECORD LOOKUP // POST-0035</text>
</svg>