<svg xmlns="http://www.w3.org/2000/svg" viewBox="0 0 800 450" width="100%" height="100%">
  <defs>
    <linearGradient id="grad-77" x1="0%" y1="0%" x2="100%" y2="100%">
      <stop offset="0%" stop-color="#111827" />
      <stop offset="100%" stop-color="#1f2937" />
    </linearGradient>
    <pattern id="grid-77" width="40" height="40" patternUnits="userSpaceOnUse">
      <path d="M40 0L0 0 0 40" fill="none" stroke="#60a5fa" stroke-width="0.7" opacity="0.08" />
    </pattern>
  </defs>
  <rect width="800" height="450" fill="url(#grad-77)" />
  <rect width="800" height="450" fill="url(#grid-77)" />
  
  <circle cx="400" cy="224" r="120" fill="none" stroke="#60a5fa" stroke-width="1.5" stroke-dasharray="10 8" opacity="0.15" />
  <circle cx="400" cy="224" r="150" fill="none" stroke="#22c55e" stroke-width="1" opacity="0.09" />
  <circle cx="400" cy="224" r="170" fill="#60a5fa" opacity="0.02" />
  <path d="M40 60L40 40 60 40M760 60L760 40 740 40M40 390L40 410 60 410M760 390L760 410 740 410" fill="none" stroke="#60a5fa" stroke-width="1.5" opacity="0.28" />
  <g transform="translate(400 224)">
    <circle cx="0" cy="0" r="52" fill="none" stroke="#60a5fa" stroke-width="10" stroke-dasharray="14 9"/><path d="M-20 2l16 16 36-40" fill="none" stroke="#22c55e" stroke-width="11" stroke-linecap="round" stroke-linejoin="round"/>
  </g>
  <text x="400" y="340" font-family="'IBM Plex Mono', monospace" font-size="13" fill="#60a5fa" opacity="0.72" text-anchor="middle">DMARC ENFORCEMENT</text>
  <text x="400" y="372" font-family="'Syne', sans-serif" font-size="18" font-weight="700" fill="#ffffff" text-anchor="middle" letter-spacing="3">DMARC REPORTING: HOW TO PARSE…</text>
  <text x="400" y="400" font-family="'IBM Plex Mono', monospace" font-size="11" fill="#22c55e" opacity="0.82" text-anchor="middle" letter-spacing="2">INBOXFIXER VISUAL // POST-0077</text>
</svg>