<svg xmlns="http://www.w3.org/2000/svg" viewBox="0 0 800 450" width="100%" height="100%">
  <defs>
    <linearGradient id="grad-32" x1="0%" y1="0%" x2="100%" y2="100%">
      <stop offset="0%" stop-color="#140b12" />
      <stop offset="100%" stop-color="#4a1328" />
    </linearGradient>
    <pattern id="grid-32" width="40" height="40" patternUnits="userSpaceOnUse">
      <path d="M40 0L0 0 0 40" fill="none" stroke="#fb7185" stroke-width="0.7" opacity="0.08" />
    </pattern>
  </defs>
  <rect width="800" height="450" fill="url(#grad-32)" />
  <rect width="800" height="450" fill="url(#grid-32)" />
  
  <circle cx="161" cy="93" r="80" fill="#fb7185" opacity="0.07" />
  <circle cx="641" cy="334" r="122" fill="#f97316" opacity="0.06" />
  <rect x="154" y="108" width="492" height="224" rx="26" fill="#1c0f17" stroke="#fb7185" stroke-opacity="0.22" />
  <path d="M226 184h160M226 224h209M226 264h110" stroke="#ffd4dd" stroke-width="9" stroke-linecap="round" opacity="0.45" />
  <path d="M484 174c22-34 78-34 100 0 22 34-6 84-50 84-20 0-34 10-34 28" fill="none" stroke="#fb7185" stroke-width="10" stroke-linecap="round" />
  <path d="M496 290l-14 34 34-14" fill="none" stroke="#f97316" stroke-width="10" stroke-linecap="round" stroke-linejoin="round" />
  
      <rect x="66" y="54" width="96" height="28" rx="8" fill="#0c1724" stroke="#fb7185" stroke-opacity="0.22"/>
      <text x="114" y="73" font-family="'IBM Plex Mono', monospace" font-size="11" fill="#fb7185" text-anchor="middle">#DELIVERABI</text>
    
      <rect x="178" y="54" width="96" height="28" rx="8" fill="#0c1724" stroke="#fb7185" stroke-opacity="0.22"/>
      <text x="226" y="73" font-family="'IBM Plex Mono', monospace" font-size="11" fill="#fb7185" text-anchor="middle">#BEST-PRACT</text>
    
  <text x="400" y="372" font-family="'Syne', sans-serif" font-size="18" font-weight="700" fill="#ffffff" text-anchor="middle" letter-spacing="3">EMAIL AUTH RECORDS</text>
  <text x="400" y="400" font-family="'IBM Plex Mono', monospace" font-size="11" fill="#fb7185" opacity="0.82" text-anchor="middle" letter-spacing="2">DELIVERY PATH GUIDE // POST-0032</text>
</svg>