<svg xmlns="http://www.w3.org/2000/svg" viewBox="0 0 800 450" width="100%" height="100%">
  <defs>
    <linearGradient id="grad-14" x1="0%" y1="0%" x2="100%" y2="100%">
      <stop offset="0%" stop-color="#10140b" />
      <stop offset="100%" stop-color="#2f3f14" />
    </linearGradient>
    <pattern id="grid-14" width="40" height="40" patternUnits="userSpaceOnUse">
      <path d="M40 0L0 0 0 40" fill="none" stroke="#84cc16" stroke-width="0.7" opacity="0.08" />
    </pattern>
  </defs>
  <rect width="800" height="450" fill="url(#grad-14)" />
  <rect width="800" height="450" fill="url(#grid-14)" />
  
  <circle cx="126" cy="118" r="98" fill="#84cc16" opacity="0.07" />
  <circle cx="660" cy="331" r="130" fill="#facc15" opacity="0.06" />
  <rect x="148" y="110" width="512" height="210" rx="24" fill="#11180b" stroke="#84cc16" stroke-opacity="0.25" />
  <path d="M188 160h176M188 195h255M188 230h169M188 265h196" stroke="#ecfccb" stroke-width="8" stroke-linecap="round" opacity="0.45" />
  <circle cx="604" cy="222" r="54" fill="none" stroke="#84cc16" stroke-width="10" />
  <path d="M640 258l38 38" stroke="#facc15" stroke-width="12" stroke-linecap="round" />
  
      <rect x="66" y="54" width="96" height="28" rx="8" fill="#0c1724" stroke="#84cc16" stroke-opacity="0.22"/>
      <text x="114" y="73" font-family="'IBM Plex Mono', monospace" font-size="11" fill="#84cc16" text-anchor="middle">#SPF-RECORD</text>
    
      <rect x="178" y="54" width="96" height="28" rx="8" fill="#0c1724" stroke="#84cc16" stroke-opacity="0.22"/>
      <text x="226" y="73" font-family="'IBM Plex Mono', monospace" font-size="11" fill="#84cc16" text-anchor="middle">#EMAIL-SECU</text>
    
  <text x="400" y="372" font-family="'Syne', sans-serif" font-size="18" font-weight="700" fill="#ffffff" text-anchor="middle" letter-spacing="3">SPF RECORD REPAIR</text>
  <text x="400" y="400" font-family="'IBM Plex Mono', monospace" font-size="11" fill="#84cc16" opacity="0.8" text-anchor="middle" letter-spacing="2">BLOG SEARCH PREVIEW // POST-0014</text>
</svg>