<svg xmlns="http://www.w3.org/2000/svg" viewBox="0 0 800 450" width="100%" height="100%">
  <defs>
    <linearGradient id="grad-23" x1="0%" y1="0%" x2="100%" y2="100%">
      <stop offset="0%" stop-color="#0c1020" />
      <stop offset="100%" stop-color="#1e1b4b" />
    </linearGradient>
    <pattern id="grid-23" width="40" height="40" patternUnits="userSpaceOnUse">
      <path d="M40 0L0 0 0 40" fill="none" stroke="#a78bfa" stroke-width="0.7" opacity="0.08" />
    </pattern>
  </defs>
  <rect width="800" height="450" fill="url(#grad-23)" />
  <rect width="800" height="450" fill="url(#grid-23)" />
  
  <circle cx="134" cy="106" r="89" fill="#a78bfa" opacity="0.07" />
  <circle cx="643" cy="319" r="116" fill="#22c55e" opacity="0.06" />
  <rect x="180" y="104" width="402" height="70" rx="18" fill="#0a0f1e" stroke="#a78bfa" stroke-opacity="0.26" />
  <rect x="199" y="170" width="406" height="70" rx="18" fill="#0a0f1e" stroke="#22c55e" stroke-opacity="0.24" />
  <rect x="221" y="236" width="407" height="70" rx="18" fill="#0a0f1e" stroke="#a78bfa" stroke-opacity="0.22" />
  <path d="M230 138h197M249 204h222M271 270h160" stroke="#ddd6fe" stroke-width="8" stroke-linecap="round" opacity="0.45" />
  <g transform="translate(602 205)">
    <rect x="-70" y="-36" width="42" height="72" rx="10" fill="none" stroke="#22c55e" stroke-width="7"/><rect x="-21" y="-36" width="42" height="72" rx="10" fill="none" stroke="#a78bfa" stroke-width="7"/><rect x="28" y="-36" width="42" height="72" rx="10" fill="none" stroke="#22c55e" stroke-width="7"/>
  </g>
  <text x="400" y="372" font-family="'Syne', sans-serif" font-size="18" font-weight="700" fill="#ffffff" text-anchor="middle" letter-spacing="3">HOW TO AUTHENTICATE SUBDOMA…</text>
  <text x="400" y="400" font-family="'IBM Plex Mono', monospace" font-size="11" fill="#a78bfa" opacity="0.8" text-anchor="middle" letter-spacing="2">EMAIL PATHS CORRECTLY // POST-0023</text>
</svg>