<svg xmlns="http://www.w3.org/2000/svg" viewBox="0 0 800 450" width="100%" height="100%">
  <defs>
    <linearGradient id="grad-59" x1="0%" y1="0%" x2="100%" y2="100%">
      <stop offset="0%" stop-color="#1a1023" />
      <stop offset="100%" stop-color="#3b0764" />
    </linearGradient>
    <pattern id="grid-59" width="40" height="40" patternUnits="userSpaceOnUse">
      <path d="M40 0L0 0 0 40" fill="none" stroke="#c084fc" stroke-width="0.7" opacity="0.08" />
    </pattern>
  </defs>
  <rect width="800" height="450" fill="url(#grad-59)" />
  <rect width="800" height="450" fill="url(#grid-59)" />
  
  <path d="M0 353Q170 300 332 341T640 338T800 350V450H0Z" fill="#22c55e" opacity="0.08" />
  <circle cx="179" cy="103" r="83" fill="#c084fc" opacity="0.08" />
  <rect x="138" y="98" width="524" height="236" rx="26" fill="#130d18" stroke="#c084fc" stroke-opacity="0.24" />
  <circle cx="174" cy="128" r="8" fill="#c084fc" opacity="0.8" />
  <circle cx="200" cy="128" r="8" fill="#22c55e" opacity="0.8" />
  <circle cx="226" cy="128" r="8" fill="#ffffff" opacity="0.5" />
  <path d="M194 170h144M194 210h207M194 250h139" stroke="#f3e8ff" stroke-width="9" stroke-linecap="round" opacity="0.45" />
  <circle cx="554" cy="212" r="62" fill="none" stroke="#c084fc" stroke-width="10" />
  <path d="M592 252l38 38" stroke="#22c55e" stroke-width="12" stroke-linecap="round" />
  
      <rect x="66" y="54" width="96" height="28" rx="8" fill="#0c1724" stroke="#c084fc" stroke-opacity="0.22"/>
      <text x="114" y="73" font-family="'IBM Plex Mono', monospace" font-size="11" fill="#c084fc" text-anchor="middle">#INBOX-GUID</text>
    
      <rect x="178" y="54" width="96" height="28" rx="8" fill="#0c1724" stroke="#c084fc" stroke-opacity="0.22"/>
      <text x="226" y="73" font-family="'IBM Plex Mono', monospace" font-size="11" fill="#c084fc" text-anchor="middle">#EMAIL-SECU</text>
    
  <text x="400" y="372" font-family="'Syne', sans-serif" font-size="18" font-weight="700" fill="#ffffff" text-anchor="middle" letter-spacing="3">UNDERSTANDING MICROSOFT OUTLO…</text>
  <text x="400" y="400" font-family="'IBM Plex Mono', monospace" font-size="11" fill="#c084fc" opacity="0.82" text-anchor="middle" letter-spacing="2">LIVE RECORD LOOKUP // POST-0059</text>
</svg>