<svg xmlns="http://www.w3.org/2000/svg" viewBox="0 0 800 450" width="100%" height="100%">
  <defs>
    <linearGradient id="grad-71" x1="0%" y1="0%" x2="100%" y2="100%">
      <stop offset="0%" stop-color="#07111f" />
      <stop offset="100%" stop-color="#0f3b5f" />
    </linearGradient>
    <pattern id="grid-71" width="40" height="40" patternUnits="userSpaceOnUse">
      <path d="M40 0L0 0 0 40" fill="none" stroke="#38bdf8" stroke-width="0.7" opacity="0.08" />
    </pattern>
  </defs>
  <rect width="800" height="450" fill="url(#grad-71)" />
  <rect width="800" height="450" fill="url(#grid-71)" />
  
  <circle cx="138" cy="108" r="89" fill="#38bdf8" opacity="0.07" />
  <circle cx="644" cy="319" r="108" fill="#22c55e" opacity="0.06" />
  <rect x="181" y="104" width="403" height="70" rx="18" fill="#06101b" stroke="#38bdf8" stroke-opacity="0.26" />
  <rect x="199" y="170" width="408" height="70" rx="18" fill="#06101b" stroke="#22c55e" stroke-opacity="0.24" />
  <rect x="222" y="236" width="409" height="70" rx="18" fill="#06101b" stroke="#38bdf8" stroke-opacity="0.22" />
  <path d="M231 138h200M249 204h226M272 270h161" stroke="#d7f3ff" stroke-width="8" stroke-linecap="round" opacity="0.45" />
  <g transform="translate(586 205)">
    <rect x="-70" y="-36" width="42" height="72" rx="10" fill="none" stroke="#22c55e" stroke-width="7"/><rect x="-21" y="-36" width="42" height="72" rx="10" fill="none" stroke="#38bdf8" stroke-width="7"/><rect x="28" y="-36" width="42" height="72" rx="10" fill="none" stroke="#22c55e" stroke-width="7"/>
  </g>
  <text x="400" y="372" font-family="'Syne', sans-serif" font-size="18" font-weight="700" fill="#ffffff" text-anchor="middle" letter-spacing="3">WHY LARGE ATTACHMENTS TRIGG…</text>
  <text x="400" y="400" font-family="'IBM Plex Mono', monospace" font-size="11" fill="#38bdf8" opacity="0.8" text-anchor="middle" letter-spacing="2">SPAM FILTERS AUTOMATICALLY // POST-0071</text>
</svg>