<svg xmlns="http://www.w3.org/2000/svg" viewBox="0 0 800 450" width="100%" height="100%">
  <defs>
    <linearGradient id="grad-63" x1="0%" y1="0%" x2="100%" y2="100%">
      <stop offset="0%" stop-color="#0c1020" />
      <stop offset="100%" stop-color="#1e1b4b" />
    </linearGradient>
    <pattern id="grid-63" width="40" height="40" patternUnits="userSpaceOnUse">
      <path d="M40 0L0 0 0 40" fill="none" stroke="#a78bfa" stroke-width="0.7" opacity="0.08" />
    </pattern>
  </defs>
  <rect width="800" height="450" fill="url(#grad-63)" />
  <rect width="800" height="450" fill="url(#grid-63)" />
  
  <circle cx="147" cy="117" r="89" fill="#a78bfa" opacity="0.07" />
  <circle cx="649" cy="320" r="116" fill="#22c55e" opacity="0.06" />
  <rect x="183" y="104" width="405" height="70" rx="18" fill="#0a0f1e" stroke="#a78bfa" stroke-opacity="0.26" />
  <rect x="200" y="170" width="417" height="70" rx="18" fill="#0a0f1e" stroke="#22c55e" stroke-opacity="0.24" />
  <rect x="226" y="236" width="413" height="70" rx="18" fill="#0a0f1e" stroke="#a78bfa" stroke-opacity="0.22" />
  <path d="M233 138h218M250 204h235M276 270h166" stroke="#ddd6fe" stroke-width="8" stroke-linecap="round" opacity="0.45" />
  <g transform="translate(602 205)">
    <circle cx="-10" cy="8" r="22" fill="none" stroke="#a78bfa" stroke-width="10"/><path d="M9 8h56m-20 0v18m-15-18v12" fill="none" stroke="#22c55e" stroke-width="10" stroke-linecap="round" stroke-linejoin="round"/>
  </g>
  <text x="400" y="372" font-family="'Syne', sans-serif" font-size="18" font-weight="700" fill="#ffffff" text-anchor="middle" letter-spacing="3">RESOLVING DKIM BODY HASH DID</text>
  <text x="400" y="400" font-family="'IBM Plex Mono', monospace" font-size="11" fill="#a78bfa" opacity="0.8" text-anchor="middle" letter-spacing="2">NOT VERIFY SIGNATURE ISSUES // POST-0063</text>
</svg>