<svg xmlns="http://www.w3.org/2000/svg" viewBox="0 0 800 450" width="100%" height="100%">
  <defs>
    <linearGradient id="grad-67" x1="0%" y1="0%" x2="100%" y2="100%">
      <stop offset="0%" stop-color="#111827" />
      <stop offset="100%" stop-color="#1f2937" />
    </linearGradient>
    <pattern id="grid-67" width="40" height="40" patternUnits="userSpaceOnUse">
      <path d="M40 0L0 0 0 40" fill="none" stroke="#60a5fa" stroke-width="0.7" opacity="0.08" />
    </pattern>
  </defs>
  <rect width="800" height="450" fill="url(#grad-67)" />
  <rect width="800" height="450" fill="url(#grid-67)" />
  
  <path d="M0 350Q170 300 332 350T640 336T800 350V450H0Z" fill="#22c55e" opacity="0.08" />
  <circle cx="174" cy="112" r="83" fill="#60a5fa" opacity="0.08" />
  <rect x="154" y="98" width="492" height="236" rx="26" fill="#0b1220" stroke="#60a5fa" stroke-opacity="0.24" />
  <circle cx="190" cy="128" r="8" fill="#60a5fa" opacity="0.8" />
  <circle cx="216" cy="128" r="8" fill="#22c55e" opacity="0.8" />
  <circle cx="242" cy="128" r="8" fill="#ffffff" opacity="0.5" />
  <path d="M210 170h163M210 210h198M210 250h134" stroke="#dbeafe" stroke-width="9" stroke-linecap="round" opacity="0.45" />
  <circle cx="538" cy="211" r="58" fill="none" stroke="#60a5fa" stroke-width="10" />
  <path d="M576 251l38 38" stroke="#22c55e" stroke-width="12" stroke-linecap="round" />
  
      <rect x="66" y="54" width="96" height="28" rx="8" fill="#0c1724" stroke="#60a5fa" stroke-opacity="0.22"/>
      <text x="114" y="73" font-family="'IBM Plex Mono', monospace" font-size="11" fill="#60a5fa" text-anchor="middle">#SPF-RECORD</text>
    
      <rect x="178" y="54" width="96" height="28" rx="8" fill="#0c1724" stroke="#60a5fa" stroke-opacity="0.22"/>
      <text x="226" y="73" font-family="'IBM Plex Mono', monospace" font-size="11" fill="#60a5fa" text-anchor="middle">#EMAIL-SECU</text>
    
  <text x="400" y="372" font-family="'Syne', sans-serif" font-size="18" font-weight="700" fill="#ffffff" text-anchor="middle" letter-spacing="3">UNDERSTANDING SPF PTR MECHANI…</text>
  <text x="400" y="400" font-family="'IBM Plex Mono', monospace" font-size="11" fill="#60a5fa" opacity="0.82" text-anchor="middle" letter-spacing="2">LIVE RECORD LOOKUP // POST-0067</text>
</svg>