<svg xmlns="http://www.w3.org/2000/svg" viewBox="0 0 800 450" width="100%" height="100%">
  <defs>
    <linearGradient id="grad-22" x1="0%" y1="0%" x2="100%" y2="100%">
      <stop offset="0%" stop-color="#140b12" />
      <stop offset="100%" stop-color="#4a1328" />
    </linearGradient>
    <pattern id="grid-22" width="40" height="40" patternUnits="userSpaceOnUse">
      <path d="M40 0L0 0 0 40" fill="none" stroke="#fb7185" stroke-width="0.7" opacity="0.08" />
    </pattern>
  </defs>
  <rect width="800" height="450" fill="url(#grad-22)" />
  <rect width="800" height="450" fill="url(#grid-22)" />
  
  <circle cx="146" cy="112" r="98" fill="#fb7185" opacity="0.07" />
  <circle cx="655" cy="330" r="130" fill="#f97316" opacity="0.06" />
  <rect x="164" y="110" width="480" height="210" rx="24" fill="#1c0f17" stroke="#fb7185" stroke-opacity="0.25" />
  <path d="M204 160h196M204 195h250M204 230h151M204 265h216" stroke="#ffd4dd" stroke-width="8" stroke-linecap="round" opacity="0.45" />
  <circle cx="588" cy="221" r="54" fill="none" stroke="#fb7185" stroke-width="10" />
  <path d="M624 257l38 38" stroke="#f97316" stroke-width="12" stroke-linecap="round" />
  
      <rect x="66" y="54" width="96" height="28" rx="8" fill="#0c1724" stroke="#fb7185" stroke-opacity="0.22"/>
      <text x="114" y="73" font-family="'IBM Plex Mono', monospace" font-size="11" fill="#fb7185" text-anchor="middle">#SPF-RECORD</text>
    
      <rect x="178" y="54" width="96" height="28" rx="8" fill="#0c1724" stroke="#fb7185" stroke-opacity="0.22"/>
      <text x="226" y="73" font-family="'IBM Plex Mono', monospace" font-size="11" fill="#fb7185" text-anchor="middle">#EMAIL-SECU</text>
    
  <text x="400" y="372" font-family="'Syne', sans-serif" font-size="18" font-weight="700" fill="#ffffff" text-anchor="middle" letter-spacing="3">SPF RECORD REPAIR</text>
  <text x="400" y="400" font-family="'IBM Plex Mono', monospace" font-size="11" fill="#fb7185" opacity="0.8" text-anchor="middle" letter-spacing="2">BLOG SEARCH PREVIEW // POST-0022</text>
</svg>