<svg xmlns="http://www.w3.org/2000/svg" viewBox="0 0 800 450" width="100%" height="100%">
  <defs>
    <linearGradient id="grad-55" x1="0%" y1="0%" x2="100%" y2="100%">
      <stop offset="0%" stop-color="#07131a" />
      <stop offset="100%" stop-color="#083344" />
    </linearGradient>
    <pattern id="grid-55" width="40" height="40" patternUnits="userSpaceOnUse">
      <path d="M40 0L0 0 0 40" fill="none" stroke="#22d3ee" stroke-width="0.7" opacity="0.08" />
    </pattern>
  </defs>
  <rect width="800" height="450" fill="url(#grad-55)" />
  <rect width="800" height="450" fill="url(#grid-55)" />
  
  <circle cx="127" cy="107" r="89" fill="#22d3ee" opacity="0.07" />
  <circle cx="654" cy="321" r="104" fill="#34d399" opacity="0.06" />
  <rect x="179" y="104" width="408" height="70" rx="18" fill="#081019" stroke="#22d3ee" stroke-opacity="0.26" />
  <rect x="201" y="170" width="407" height="70" rx="18" fill="#081019" stroke="#34d399" stroke-opacity="0.24" />
  <rect x="221" y="236" width="403" height="70" rx="18" fill="#081019" stroke="#22d3ee" stroke-opacity="0.22" />
  <path d="M229 138h199M251 204h215M271 270h171" stroke="#d5fbff" stroke-width="8" stroke-linecap="round" opacity="0.45" />
  <g transform="translate(578 205)">
    <rect x="-70" y="-36" width="42" height="72" rx="10" fill="none" stroke="#34d399" stroke-width="7"/><rect x="-21" y="-36" width="42" height="72" rx="10" fill="none" stroke="#22d3ee" stroke-width="7"/><rect x="28" y="-36" width="42" height="72" rx="10" fill="none" stroke="#34d399" stroke-width="7"/>
  </g>
  <text x="400" y="372" font-family="'Syne', sans-serif" font-size="18" font-weight="700" fill="#ffffff" text-anchor="middle" letter-spacing="3">MANAGING CUSTOM DOMAINS FOR</text>
  <text x="400" y="400" font-family="'IBM Plex Mono', monospace" font-size="11" fill="#22d3ee" opacity="0.8" text-anchor="middle" letter-spacing="2">HIGH VOLUME EMAIL NEWSLETTERS // POST-0055</text>
</svg>