<svg xmlns="http://www.w3.org/2000/svg" viewBox="0 0 800 450" width="100%" height="100%">
  <defs>
    <linearGradient id="grad-8" x1="0%" y1="0%" x2="100%" y2="100%">
      <stop offset="0%" stop-color="#0f172a" />
      <stop offset="100%" stop-color="#164e63" />
    </linearGradient>
    <pattern id="grid-8" width="40" height="40" patternUnits="userSpaceOnUse">
      <path d="M40 0L0 0 0 40" fill="none" stroke="#06b6d4" stroke-width="0.7" opacity="0.08" />
    </pattern>
  </defs>
  <rect width="800" height="450" fill="url(#grad-8)" />
  <rect width="800" height="450" fill="url(#grid-8)" />
  
  <circle cx="176" cy="101" r="80" fill="#06b6d4" opacity="0.07" />
  <circle cx="656" cy="334" r="127" fill="#a3e635" opacity="0.06" />
  <rect x="146" y="108" width="508" height="224" rx="26" fill="#0a1420" stroke="#06b6d4" stroke-opacity="0.22" />
  <path d="M218 184h158M218 224h224M218 264h127" stroke="#cffafe" stroke-width="9" stroke-linecap="round" opacity="0.45" />
  <path d="M492 174c22-34 78-34 100 0 22 34-6 84-50 84-20 0-34 10-34 28" fill="none" stroke="#06b6d4" stroke-width="10" stroke-linecap="round" />
  <path d="M504 290l-14 34 34-14" fill="none" stroke="#a3e635" stroke-width="10" stroke-linecap="round" stroke-linejoin="round" />
  
      <rect x="66" y="54" width="96" height="28" rx="8" fill="#0c1724" stroke="#06b6d4" stroke-opacity="0.22"/>
      <text x="114" y="73" font-family="'IBM Plex Mono', monospace" font-size="11" fill="#06b6d4" text-anchor="middle">#BLACKLISTS</text>
    
      <rect x="178" y="54" width="96" height="28" rx="8" fill="#0c1724" stroke="#06b6d4" stroke-opacity="0.22"/>
      <text x="226" y="73" font-family="'IBM Plex Mono', monospace" font-size="11" fill="#06b6d4" text-anchor="middle">#IP-REPUTAT</text>
    
      <rect x="290" y="54" width="96" height="28" rx="8" fill="#0c1724" stroke="#06b6d4" stroke-opacity="0.22"/>
      <text x="338" y="73" font-family="'IBM Plex Mono', monospace" font-size="11" fill="#06b6d4" text-anchor="middle">#DELISTING</text>
    
  <text x="400" y="372" font-family="'Syne', sans-serif" font-size="18" font-weight="700" fill="#ffffff" text-anchor="middle" letter-spacing="3">BLACKLIST MONITOR</text>
  <text x="400" y="400" font-family="'IBM Plex Mono', monospace" font-size="11" fill="#06b6d4" opacity="0.82" text-anchor="middle" letter-spacing="2">DELIVERY PATH GUIDE // POST-0008</text>
</svg>