<svg xmlns="http://www.w3.org/2000/svg" viewBox="0 0 800 450" width="100%" height="100%">
  <defs>
    <linearGradient id="grad-5" x1="0%" y1="0%" x2="100%" y2="100%">
      <stop offset="0%" stop-color="#07131a" />
      <stop offset="100%" stop-color="#083344" />
    </linearGradient>
    <pattern id="grid-5" width="40" height="40" patternUnits="userSpaceOnUse">
      <path d="M40 0L0 0 0 40" fill="none" stroke="#22d3ee" stroke-width="0.7" opacity="0.08" />
    </pattern>
  </defs>
  <rect width="800" height="450" fill="url(#grad-5)" />
  <rect width="800" height="450" fill="url(#grid-5)" />
  
  <circle cx="400" cy="224" r="120" fill="none" stroke="#22d3ee" stroke-width="1.5" stroke-dasharray="10 8" opacity="0.15" />
  <circle cx="400" cy="224" r="150" fill="none" stroke="#34d399" stroke-width="1" opacity="0.09" />
  <circle cx="400" cy="224" r="170" fill="#22d3ee" opacity="0.02" />
  <path d="M40 60L40 40 60 40M760 60L760 40 740 40M40 390L40 410 60 410M760 390L760 410 740 410" fill="none" stroke="#22d3ee" stroke-width="1.5" opacity="0.28" />
  <g transform="translate(400 224)">
    <path d="M0 -40l48 16v40c0 28-19 52-48 66-29-14-48-38-48-66v-40z" fill="none" stroke="#22d3ee" stroke-width="10"/><path d="M-18 6l15 15 28-34" fill="none" stroke="#34d399" stroke-width="10" stroke-linecap="round" stroke-linejoin="round"/>
  </g>
  <text x="400" y="340" font-family="'IBM Plex Mono', monospace" font-size="13" fill="#22d3ee" opacity="0.72" text-anchor="middle">SPF ALIGNMENT</text>
  <text x="400" y="372" font-family="'Syne', sans-serif" font-size="18" font-weight="700" fill="#ffffff" text-anchor="middle" letter-spacing="3">THE ABSOLUTE GUIDE TO SPF SOF…</text>
  <text x="400" y="400" font-family="'IBM Plex Mono', monospace" font-size="11" fill="#34d399" opacity="0.82" text-anchor="middle" letter-spacing="2">INBOXFIXER VISUAL // POST-0005</text>
</svg>