<svg xmlns="http://www.w3.org/2000/svg" viewBox="0 0 800 450" width="100%" height="100%">
  <defs>
    <linearGradient id="grad-47" x1="0%" y1="0%" x2="100%" y2="100%">
      <stop offset="0%" stop-color="#111827" />
      <stop offset="100%" stop-color="#1f2937" />
    </linearGradient>
    <pattern id="grid-47" width="40" height="40" patternUnits="userSpaceOnUse">
      <path d="M40 0L0 0 0 40" fill="none" stroke="#60a5fa" stroke-width="0.7" opacity="0.08" />
    </pattern>
  </defs>
  <rect width="800" height="450" fill="url(#grad-47)" />
  <rect width="800" height="450" fill="url(#grid-47)" />
  
  <circle cx="136" cy="116" r="89" fill="#60a5fa" opacity="0.07" />
  <circle cx="659" cy="322" r="112" fill="#22c55e" opacity="0.06" />
  <rect x="181" y="104" width="410" height="70" rx="18" fill="#0b1220" stroke="#60a5fa" stroke-opacity="0.26" />
  <rect x="202" y="170" width="416" height="70" rx="18" fill="#0b1220" stroke="#22c55e" stroke-opacity="0.24" />
  <rect x="226" y="236" width="408" height="70" rx="18" fill="#0b1220" stroke="#60a5fa" stroke-opacity="0.22" />
  <path d="M231 138h217M252 204h224M276 270h176" stroke="#dbeafe" stroke-width="8" stroke-linecap="round" opacity="0.45" />
  <g transform="translate(594 205)">
    <path d="M0 -40l48 16v40c0 28-19 52-48 66-29-14-48-38-48-66v-40z" fill="none" stroke="#60a5fa" stroke-width="10"/><path d="M-18 6l15 15 28-34" fill="none" stroke="#22c55e" stroke-width="10" stroke-linecap="round" stroke-linejoin="round"/>
  </g>
  <text x="400" y="372" font-family="'Syne', sans-serif" font-size="18" font-weight="700" fill="#ffffff" text-anchor="middle" letter-spacing="3">CONFIGURING SPF AND DKIM</text>
  <text x="400" y="400" font-family="'IBM Plex Mono', monospace" font-size="11" fill="#60a5fa" opacity="0.8" text-anchor="middle" letter-spacing="2">FOR SHOPIFY STORE E-COMMERCE // POST-0047</text>
</svg>