<svg xmlns="http://www.w3.org/2000/svg" viewBox="0 0 800 450" width="100%" height="100%">
  <defs>
    <linearGradient id="grad-34" x1="0%" y1="0%" x2="100%" y2="100%">
      <stop offset="0%" stop-color="#10140b" />
      <stop offset="100%" stop-color="#2f3f14" />
    </linearGradient>
    <pattern id="grid-34" width="40" height="40" patternUnits="userSpaceOnUse">
      <path d="M40 0L0 0 0 40" fill="none" stroke="#84cc16" stroke-width="0.7" opacity="0.08" />
    </pattern>
  </defs>
  <rect width="800" height="450" fill="url(#grad-34)" />
  <rect width="800" height="450" fill="url(#grid-34)" />
  
  <circle cx="147" cy="98" r="94" fill="#84cc16" opacity="0.08" />
  <circle cx="644" cy="336" r="112" fill="#facc15" opacity="0.06" />
  <rect x="126" y="110" width="546" height="220" rx="28" fill="#11180b" stroke="#84cc16" stroke-opacity="0.22" />
  <path d="M212 175h166M212 225h112M212 275h207" stroke="#ecfccb" stroke-width="10" stroke-linecap="round" opacity="0.5" />
  <path d="M477 152l90 86-96 60 10-60-50-30z" fill="#84cc16" opacity="0.18" stroke="#84cc16" stroke-width="6" />
  <path d="M500 214l26 26 50-60" fill="none" stroke="#facc15" stroke-width="12" stroke-linecap="round" stroke-linejoin="round" />
  
      <rect x="66" y="54" width="96" height="28" rx="8" fill="#0c1724" stroke="#84cc16" stroke-opacity="0.22"/>
      <text x="114" y="73" font-family="'IBM Plex Mono', monospace" font-size="11" fill="#84cc16" text-anchor="middle">#DELIVERABI</text>
    
      <rect x="178" y="54" width="96" height="28" rx="8" fill="#0c1724" stroke="#84cc16" stroke-opacity="0.22"/>
      <text x="226" y="73" font-family="'IBM Plex Mono', monospace" font-size="11" fill="#84cc16" text-anchor="middle">#BEST-PRACT</text>
    
  <text x="400" y="372" font-family="'Syne', sans-serif" font-size="18" font-weight="700" fill="#ffffff" text-anchor="middle" letter-spacing="3">UNDERSTANDING SPAMASSASSIN…</text>
  <text x="400" y="398" font-family="'IBM Plex Mono', monospace" font-size="11" fill="#84cc16" opacity="0.82" text-anchor="middle" letter-spacing="2">AND FILTER MECHANICS // POST-0034</text>
</svg>