<svg xmlns="http://www.w3.org/2000/svg" viewBox="0 0 800 450" width="100%" height="100%">
  <defs>
    <linearGradient id="grad-57" x1="0%" y1="0%" x2="100%" y2="100%">
      <stop offset="0%" stop-color="#111827" />
      <stop offset="100%" stop-color="#1f2937" />
    </linearGradient>
    <pattern id="grid-57" width="40" height="40" patternUnits="userSpaceOnUse">
      <path d="M40 0L0 0 0 40" fill="none" stroke="#60a5fa" stroke-width="0.7" opacity="0.08" />
    </pattern>
  </defs>
  <rect width="800" height="450" fill="url(#grad-57)" />
  <rect width="800" height="450" fill="url(#grid-57)" />
  
  <circle cx="132" cy="134" r="88" fill="#60a5fa" opacity="0.07" />
  <circle cx="655" cy="329" r="118" fill="#22c55e" opacity="0.06" />
  <rect x="142" y="109" width="498" height="240" rx="28" fill="#0b1220" stroke="#60a5fa" stroke-opacity="0.24" />
  <path d="M204 160h170M204 205h222M204 250h169" stroke="#dbeafe" stroke-width="10" stroke-linecap="round" opacity="0.5" />
  <circle cx="507" cy="221" r="58" fill="none" stroke="#60a5fa" stroke-width="10" stroke-dasharray="10 8" />
  <path d="M481 221l18 18 36-40" fill="none" stroke="#22c55e" stroke-width="12" stroke-linecap="round" stroke-linejoin="round" />
  
      <rect x="66" y="54" width="96" height="28" rx="8" fill="#0c1724" stroke="#60a5fa" stroke-opacity="0.22"/>
      <text x="114" y="73" font-family="'IBM Plex Mono', monospace" font-size="11" fill="#60a5fa" text-anchor="middle">#SPF-RECORD</text>
    
      <rect x="178" y="54" width="96" height="28" rx="8" fill="#0c1724" stroke="#60a5fa" stroke-opacity="0.22"/>
      <text x="226" y="73" font-family="'IBM Plex Mono', monospace" font-size="11" fill="#60a5fa" text-anchor="middle">#DKIM-KEYS</text>
    
  <text x="400" y="372" font-family="'Syne', sans-serif" font-size="18" font-weight="700" fill="#ffffff" text-anchor="middle" letter-spacing="3">SPF RECORD REPAIR</text>
  <text x="400" y="400" font-family="'IBM Plex Mono', monospace" font-size="11" fill="#60a5fa" opacity="0.82" text-anchor="middle" letter-spacing="2">SPF ALIGNMENT // POST-0057</text>
</svg>